<svg width="79" height="79" viewBox="0 0 79 79" fill="none" xmlns="http://www.w3.org/2000/svg">
<path fill-rule="evenodd" clip-rule="evenodd" d="M39.4025 0C27.8247 0 21.9616 1.55629 17.3063 3.48527C11.0464 6.07679 6.07705 11.0493 3.48542 17.3056C1.55636 21.9606 0 27.8235 0 39.4042C0 50.985 1.55636 56.8443 3.48542 61.5029C6.07705 67.7625 11.0498 72.7316 17.3063 75.3232C21.965 77.2521 27.8247 78.805 39.4025 78.805C50.9803 78.805 56.8434 77.2487 61.5021 75.3232C67.7621 72.7316 72.7314 67.7591 75.323 61.5029C77.2521 56.8443 78.805 50.985 78.805 39.4042C78.805 27.8235 77.2486 21.9641 75.323 17.3056C72.7314 11.0459 67.7586 6.07679 61.5021 3.48527C56.8468 1.55629 50.9837 0 39.4025 0ZM21.2369 12.968C24.4255 11.6463 28.9152 10.266 39.4059 10.266C49.9002 10.266 54.3863 11.6463 57.575 12.968C61.3158 14.5173 64.2905 17.4919 65.8434 21.236C67.1651 24.4245 68.5454 28.9139 68.5454 39.4042C68.5454 49.8945 67.1651 54.384 65.8434 57.5725C65.1566 59.2288 64.1938 60.7334 63.0067 62.0343C62.5926 62.4863 62.3407 62.759 62.144 62.9246C62.0543 62.6416 61.9818 62.2103 61.8679 61.5063C58.1858 38.6623 40.1479 20.6286 17.3063 16.9467C16.6023 16.8328 16.171 16.7603 15.888 16.6706C16.0536 16.4739 16.3263 16.222 16.7783 15.8079C18.0759 14.6209 19.5839 13.6581 21.2404 12.9714L21.2369 12.968ZM15.7016 16.5912H15.6947V16.5878H15.6982L15.7016 16.5912ZM11.1844 27.2437C11.2465 26.9056 11.2845 26.7261 11.3224 26.6053C11.4501 26.5984 11.6365 26.6123 11.985 26.6399C33.4324 28.2548 50.5558 45.374 52.1709 66.8239C52.1985 67.1725 52.2088 67.3588 52.2054 67.4865C52.0846 67.5245 51.9051 67.559 51.5669 67.6245C49.5861 68.0007 47.1394 68.2974 44.006 68.4424C43.6126 68.4596 43.3952 68.47 43.2468 68.4596C43.2019 68.3009 43.1709 68.0697 43.1122 67.6521C40.776 51.1195 27.697 38.0412 11.1637 35.705C10.7461 35.6463 10.5184 35.6118 10.3596 35.5704C10.3493 35.4186 10.3596 35.2046 10.3769 34.8113C10.5218 31.678 10.8186 29.2314 11.1948 27.2506L11.1844 27.2437ZM10.5632 46.9614C10.5218 46.4714 10.4977 46.1919 10.5046 46.0021C10.6875 46.0159 10.9497 46.0676 11.4122 46.1608C22.0513 48.3624 30.437 56.7443 32.6422 67.3864C32.7388 67.8488 32.7905 68.1145 32.8009 68.2974C32.6111 68.3043 32.3316 68.2836 31.8415 68.2388C26.4892 67.7626 23.5352 66.7894 21.2334 65.8336C17.4927 64.2842 14.518 61.3096 12.9651 57.5656C12.0092 55.2639 11.036 52.3066 10.5598 46.9545L10.5632 46.9614Z" fill="white"/>
</svg>
