<svg width="101" height="101" viewBox="0 0 101 101" fill="none" xmlns="http://www.w3.org/2000/svg">
<path fill-rule="evenodd" clip-rule="evenodd" d="M50.074 0C35.3605 0 27.9095 1.97779 21.9934 4.42919C14.0381 7.72258 7.72292 14.0419 4.42939 21.9925C1.97787 27.9083 0 35.359 0 50.0762C0 64.7934 1.97787 72.2397 4.42939 78.1599C7.72292 86.1149 14.0425 92.4298 21.9934 95.7232C27.9139 98.1746 35.3605 100.148 50.074 100.148C64.7875 100.148 72.2385 98.1702 78.1589 95.7232C86.1143 92.4298 92.4295 86.1105 95.723 78.1599C98.1745 72.2397 100.148 64.7934 100.148 50.0762C100.148 35.359 98.1701 27.9127 95.723 21.9925C92.4295 14.0375 86.1099 7.72258 78.1589 4.42919C72.2429 1.97779 64.7918 0 50.074 0Z" fill="white"/>
</svg>
